# ProBuilder 6.0.6
# https://unity3d.com/unity/features/worldbuilding/probuilder
# 13/04/2026 11:04:43 a. m.

mtllib ./MdidasJugadorInGame.mtl
o MdidasJugadorInGame

g MdidasJugadorInGame
v 0.25 0 0.25
v -0.25 0 0.25
v 0.25 0.5 0.25
v -0.25 0.5 0.25
v -0.25 0 -0.25
v -0.25 0.5 -0.25
v 0.25 0 -0.25
v 0.25 0.5 -0.25
v -0.5 -1 -0.25
v -1.5 -1 -0.25
v -0.5 1 -0.25
v -1.5 1 -0.25
v -1.5 -1 -1.25
v -1.5 1 -1.25
v -0.5 -1 -1.25
v -0.5 1 -1.25
v -1.75 0 0.25
v -2.25 0 0.25
v -1.75 0.5 0.25
v -2.25 0.5 0.25
v -2.25 0 -0.25
v -2.25 0.5 -0.25
v -1.75 0 -0.25
v -1.75 0.5 -0.25

vt 0.5 0.5
vt 0 0.5
vt 0.5 1
vt 0 1
vt 1 -1
vt 0 -1
vt 1 1
vt 0 0
vt 1 0

vn 0 0 1
vn -1 0 0
vn 0 0 -1
vn 1 0 0
vn 0 1 0
vn 0 -1 0

usemtl ProBuilderDefault
f 3/3/1 4/4/1 2/2/1 1/1/1
f 4/3/2 6/4/2 5/2/2 2/1/2
f 6/3/3 8/4/3 7/2/3 5/1/3
f 8/3/4 3/4/4 1/2/4 7/1/4
f 8/2/5 6/1/5 4/3/5 3/4/5
f 1/3/6 2/4/6 5/2/6 7/1/6
f 11/7/1 12/4/1 10/6/1 9/5/1
f 12/7/2 14/4/2 13/6/2 10/5/2
f 14/7/3 16/4/3 15/6/3 13/5/3
f 16/7/4 11/4/4 9/6/4 15/5/4
f 16/8/5 14/9/5 12/7/5 11/4/5
f 9/7/6 10/4/6 13/8/6 15/9/6
f 19/3/1 20/4/1 18/2/1 17/1/1
f 20/3/2 22/4/2 21/2/2 18/1/2
f 22/3/3 24/4/3 23/2/3 21/1/3
f 24/3/4 19/4/4 17/2/4 23/1/4
f 24/2/5 22/1/5 20/3/5 19/4/5
f 17/3/6 18/4/6 21/2/6 23/1/6

